<svg xmlns="http://www.w3.org/2000/svg" viewBox="0 0 720 320" font-family="system-ui, -apple-system, Segoe UI, sans-serif" font-size="13">
  
  <text x="52" y="28" fill="#0b0b0b" font-weight="600">Throughput TH(w)</text>
  <text x="44" y="192" fill="#898781" font-size="11" text-anchor="end">5</text><line x1="52" y1="188.2" x2="330" y2="188.2" stroke="#e1e0d9" stroke-width="1"/><text x="44" y="130" fill="#898781" font-size="11" text-anchor="end">10</text><line x1="52" y1="126.4" x2="330" y2="126.4" stroke="#e1e0d9" stroke-width="1"/><text x="44" y="69" fill="#898781" font-size="11" text-anchor="end">15</text><line x1="52" y1="64.5" x2="330" y2="64.5" stroke="#e1e0d9" stroke-width="1"/>
  <line x1="52" y1="250" x2="330" y2="250" stroke="#c3c2b7" stroke-width="1.5"/>
  <line x1="52" y1="250" x2="52" y2="46" stroke="#c3c2b7" stroke-width="1.5"/>
  <line x1="106.4" y1="250" x2="106.4" y2="46" stroke="#898781" stroke-width="1" stroke-dasharray="4 3"/>
  <text x="106.4" y="268" fill="#0b0b0b" text-anchor="middle" font-size="12">W&#8320; &#8776; 10.8</text>
  <path d="M 52.0 250.0 L 106.4 64.5 L 330.0 64.5" fill="none" stroke="#2a78d6" stroke-width="2"/>
  <circle cx="72.3" cy="180.8" r="5" fill="#eb6834" stroke="#fcfcfb" stroke-width="1.5"/><circle cx="92.6" cy="115.2" r="5" fill="#eb6834" stroke="#fcfcfb" stroke-width="1.5"/><circle cx="123.0" cy="64.5" r="5" fill="#eb6834" stroke="#fcfcfb" stroke-width="1.5"/><circle cx="173.5" cy="64.5" r="5" fill="#eb6834" stroke="#fcfcfb" stroke-width="1.5"/><circle cx="313.3" cy="64.5" r="5" fill="#eb6834" stroke="#fcfcfb" stroke-width="1.5"/>
  <text x="191" y="288" fill="#898781" text-anchor="middle" font-size="12">measured average WIP &#8594;</text>
  <text x="52" y="42" fill="#898781" font-size="11">workpieces/min</text>
  
  <text x="422" y="28" fill="#0b0b0b" font-weight="600">Cycle time CT(w)</text>
  <text x="414" y="214" fill="#898781" font-size="11" text-anchor="end">43</text><line x1="422" y1="210.1" x2="700" y2="210.1" stroke="#e1e0d9" stroke-width="1"/><text x="414" y="161" fill="#898781" font-size="11" text-anchor="end">100</text><line x1="422" y1="157.3" x2="700" y2="157.3" stroke="#e1e0d9" stroke-width="1"/><text x="414" y="62" fill="#898781" font-size="11" text-anchor="end">207</text><line x1="422" y1="58.1" x2="700" y2="58.1" stroke="#e1e0d9" stroke-width="1"/>
  <line x1="422" y1="250" x2="700" y2="250" stroke="#c3c2b7" stroke-width="1.5"/>
  <line x1="422" y1="250" x2="422" y2="46" stroke="#c3c2b7" stroke-width="1.5"/>
  <line x1="476.4" y1="250" x2="476.4" y2="46" stroke="#898781" stroke-width="1" stroke-dasharray="4 3"/>
  <text x="476.4" y="268" fill="#0b0b0b" text-anchor="middle" font-size="12">W&#8320; &#8776; 10.8</text>
  <path d="M 422.0 210.1 L 476.4 210.1 L 700.0 46.0" fill="none" stroke="#2a78d6" stroke-width="2"/>
  <circle cx="442.3" cy="210.1" r="5" fill="#eb6834" stroke="#fcfcfb" stroke-width="1.5"/><circle cx="462.6" cy="209.0" r="5" fill="#eb6834" stroke="#fcfcfb" stroke-width="1.5"/><circle cx="493.0" cy="197.9" r="5" fill="#eb6834" stroke="#fcfcfb" stroke-width="1.5"/><circle cx="543.5" cy="160.8" r="5" fill="#eb6834" stroke="#fcfcfb" stroke-width="1.5"/><circle cx="683.3" cy="58.3" r="5" fill="#eb6834" stroke="#fcfcfb" stroke-width="1.5"/>
  <text x="561" y="288" fill="#898781" text-anchor="middle" font-size="12">measured average WIP &#8594;</text>
  <text x="422" y="42" fill="#898781" font-size="11">seconds</text>
  <line x1="150" y1="296" x2="174" y2="296" stroke="#2a78d6" stroke-width="2"/><text x="180" y="300" fill="#0b0b0b" font-size="12">deterministic best case (T&#8320; = 43.0 s measured)</text><circle cx="480" cy="296" r="5" fill="#eb6834"/><text x="490" y="300" fill="#0b0b0b" font-size="12">measured (5 runs)</text>
</svg>
